<svg width="1289" height="4" viewBox="0 0 1289 4" fill="none" xmlns="http://www.w3.org/2000/svg">
<rect width="78" height="4" transform="matrix(1 0 0 -1 0 4)" fill="white"/>
<rect width="78" height="4" transform="matrix(1 0 0 -1 81 4)" fill="white"/>
<rect width="78" height="4" transform="matrix(1 0 0 -1 161 4)" fill="white"/>
<rect width="78" height="4" transform="matrix(1 0 0 -1 242 4)" fill="white"/>
<rect width="78" height="4" transform="matrix(1 0 0 -1 323 4)" fill="white"/>
<rect width="78" height="4" transform="matrix(1 0 0 -1 404 4)" fill="white"/>
<rect width="78" height="4" transform="matrix(1 0 0 -1 484 4)" fill="white"/>
<rect width="78" height="4" transform="matrix(1 0 0 -1 565 4)" fill="white"/>
<rect width="78" height="4" transform="matrix(1 0 0 -1 646 4)" fill="white"/>
<rect width="78" height="4" transform="matrix(1 0 0 -1 727 4)" fill="white"/>
<rect width="78" height="4" transform="matrix(1 0 0 -1 807 4)" fill="white"/>
<rect width="78" height="4" transform="matrix(1 0 0 -1 888 4)" fill="white"/>
<rect width="78" height="4" transform="matrix(1 0 0 -1 969 4)" fill="white"/>
<rect width="78" height="4" transform="matrix(1 0 0 -1 1050 4)" fill="white"/>
<rect width="78" height="4" transform="matrix(1 0 0 -1 1130 4)" fill="white"/>
<rect width="78" height="4" transform="matrix(1 0 0 -1 1211 4)" fill="white"/>
</svg>
